/* XPM */
static xpm_row_t const five_xpm[] = {
"20 25 2 1",
" 	c None",
"X	c #FFE338",
"                    ",
"                    ",
"    XXXXXXXXXXX     ",
"    XXXXXXXXXXX     ",
"    XXXXXXXXXXX     ",
"    X               ",
"    X               ",
"    X               ",
"    X               ",
"    X  XXXXX        ",
"    XXXXXXXXXX      ",
"    XXX    XXXX     ",
"    X       XXXX    ",
"             XXX    ",
"             XXXX   ",
"              XXX   ",
"              XXX   ",
"              XXX   ",
"   X         XXXX   ",
"   XX        XXX    ",
"   XX       XXXX    ",
"   XXX     XXXX     ",
"   XXXXXXXXXXX      ",
"      XXXXXX        ",
"                    "};
