/* XPM */
static xpm_row_t const four_xpm[] = {
"20 25 2 1",
" 	c None",
"X	c #FFE338",
"                    ",
"                    ",
"          XXX       ",
"         XXXX       ",
"         XXXX       ",
"        XXXXX       ",
"        X XXX       ",
"       XX XXX       ",
"      XX  XXX       ",
"      X   XXX       ",
"     XX   XXX       ",
"    XX    XXX       ",
"    X     XXX       ",
"   XX     XXX       ",
"  XX      XXX       ",
"  X       XXX       ",
" XXXXXXXXXXXXXXXXX  ",
" XXXXXXXXXXXXXXXXX  ",
"          XXX       ",
"          XXX       ",
"          XXX       ",
"          XXX       ",
"       XXXXXXXXXX   ",
"       XXXXXXXXXX   ",
"                    "};
