/* XPM */
static xpm_row_t const nine_xpm[] = {
"20 25 2 1",
" 	c None",
"X	c #FFE338",
"                    ",
"                    ",
"      XXXXXX        ",
"     XXXXXXXXX      ",
"    XXX    XXXX     ",
"   XXX      XXXX    ",
"  XXX        XXX    ",
"  XXX        XXX    ",
"  XXX        XXXX   ",
"  XXX         XXX   ",
"  XXX         XXX   ",
"  XXX        XXXX   ",
"  XXXX       XXXX   ",
"   XXX       XXXX   ",
"   XXXX    XXXXXX   ",
"    XXXXXXXXX XXX   ",
"      XXXXX   XXX   ",
"              XX    ",
"             XXX    ",
"   XX        XXX    ",
"   XX       XXX     ",
"   XXX     XXX      ",
"   XXXXXXXXXX       ",
"     XXXXXX         ",
"                    "};
