/* XPM */
static xpm_row_t const one_xpm[] = {
"20 25 2 1",
" 	c None",
"X	c #FFE338",
"                    ",
"                    ",
"        XXX         ",
"      XXXXX         ",
"     XXXXXX         ",
"    XX  XXX         ",
"        XXX         ",
"        XXX         ",
"        XXX         ",
"        XXX         ",
"        XXX         ",
"        XXX         ",
"        XXX         ",
"        XXX         ",
"        XXX         ",
"        XXX         ",
"        XXX         ",
"        XXX         ",
"        XXX         ",
"        XXX         ",
"        XXX         ",
"        XXX         ",
"    XXXXXXXXXXX     ",
"    XXXXXXXXXXX     ",
"                    "};
