/* XPM */
static xpm_row_t const seven_xpm[] = {
"20 25 2 1",
" 	c None",
"X	c #FFE338",
"                    ",
"                    ",
"   XXXXXXXXXXXXXX   ",
"   XXXXXXXXXXXXXX   ",
"   XXXXXXXXXXXXXX   ",
"   X          XX    ",
"   X          XX    ",
"   X         XX     ",
"             XX     ",
"            XX      ",
"            XX      ",
"            XX      ",
"           XX       ",
"           XX       ",
"          XX        ",
"          XX        ",
"         XX         ",
"         XX         ",
"         XX         ",
"        XX          ",
"        XX          ",
"       XX           ",
"       XX           ",
"      XXX           ",
"                    "};
