/* XPM */
static xpm_row_t const six_xpm[] = {
"20 25 2 1",
" 	c None",
"X	c #FFE338",
"                    ",
"                    ",
"        XXXXXX      ",
"      XXXXXXXXXX    ",
"     XXX     XXX    ",
"    XXX       XX    ",
"   XXX        XX    ",
"   XXX              ",
"   XX               ",
"  XXX   XXXXX       ",
"  XXX XXXXXXXXX     ",
"  XXXXXX    XXXX    ",
"  XXXXX      XXX    ",
"  XXXX        XXX   ",
"  XXXX        XXX   ",
"  XXXX        XXX   ",
"  XXXX        XXX   ",
"  XXXX        XXX   ",
"   XXX        XXX   ",
"   XXX        XXX   ",
"   XXXX      XXX    ",
"    XXXX    XXXX    ",
"     XXXXXXXXX      ",
"       XXXXXX       ",
"                    "};
