/* XPM */
static xpm_row_t const three_xpm[] = {
"20 25 2 1",
" 	c None",
"X	c #FFE338",
"                    ",
"                    ",
"      XXXXXX        ",
"    XXXXXXXXXX      ",
"   XXXX    XXXX     ",
"   XXX      XXXX    ",
"   XX        XXX    ",
"   XX        XXX    ",
"             XXX    ",
"            XXX     ",
"           XXX      ",
"       XXXXXX       ",
"       XXXXXX       ",
"           XXXX     ",
"             XXX    ",
"             XXX    ",
"              XXX   ",
"              XXX   ",
"  XX          XXX   ",
"  XX         XXXX   ",
"  XXX        XXX    ",
"  XXXX     XXXXX    ",
"   XXXXXXXXXXXX     ",
"      XXXXXXX       ",
"                    "};
