/* XPM */
static xpm_row_t const two_xpm[] = {
"20 25 2 1",
" 	c None",
"X	c #FFE338",
"                    ",
"                    ",
"     XXXXXXX        ",
"   XXXXXXXXXXX      ",
"  XXXX     XXXX     ",
"  XXX       XXX     ",
"  XX        XXXX    ",
"  XX         XXX    ",
"             XXX    ",
"             XX     ",
"            XXX     ",
"            XX      ",
"           XXX      ",
"          XXX       ",
"          XX        ",
"        XXX         ",
"        XX          ",
"       XX           ",
"      XX      XX    ",
"     XX       XX    ",
"    XX        XX    ",
"   XXXXXXXXXXXXX    ",
"  XXXXXXXXXXXXXX    ",
"  XXXXXXXXXXXXXX    ",
"                    "};
