/* XPM */
static xpm_row_t const zero_xpm[] = {
"20 25 2 1",
" 	c None",
"X	c #FFE338",
"                    ",
"                    ",
"       XXXXX        ",
"     XXXXXXXXX      ",
"    XXXX   XXXX     ",
"    XXX     XXX     ",
"   XXX       XXX    ",
"   XXX       XXX    ",
"  XXX         XXX   ",
"  XXX         XXX   ",
"  XXX         XXX   ",
"  XXX         XXX   ",
"  XXX         XXX   ",
"  XXX         XXX   ",
"  XXX         XXX   ",
"  XXX         XXX   ",
"  XXX         XXX   ",
"  XXX         XXX   ",
"   XXX       XXX    ",
"   XXX       XXX    ",
"    XXX     XXX     ",
"    XXXX   XXXX     ",
"     XXXXXXXXX      ",
"       XXXXX        ",
"                    "};
