/* XPM */
static xpm_row_t const exit_xpm[] = {
"190 60 2 1",
" 	c None",
".	c #FBB124",
"                                                                                                                                                                                              ",
"                                                                                                                                                                                              ",
"                                                                                                                                                                                              ",
"                                                                                                                                                                                              ",
"                                                                                                                                                                                              ",
"                                                                                                                                                                                              ",
"                                                                                                                                                                                              ",
"                                                                                                                                                                                              ",
"                                                                                                                                                                                              ",
"                                                                                                                                                                                              ",
"                                                                                                            ....                                                                              ",
"                                                                                                           ......                                                                             ",
"                                                                                                           .......                                                                            ",
"                                                                                                          ........                                                                            ",
"                                                      .................                                    .......              ....                                                          ",
"                                                      .................                                    ......              .....                                                          ",
"                                                      .................                                     ....               .....                                                          ",
"                                                      .................                                                        .....                                                          ",
"                                                      .................                                                        .....                                                          ",
"                                                      ......                                                                   .....                                                          ",
"                                                      ......                ......       ......     .............         ..................                                                  ",
"                                                      ......                 ......     ......      .............         ..................                                                  ",
"                                                      ......                 ......     .....       .............         ..................                                                  ",
"                                                      ......                  ......   ......       .............         ..................                                                  ",
"                                                      ...............          ......  .....               ......             ......                                                          ",
"                                                      ...............           ..... ......                .....              .....                                                          ",
"                                                      ...............           ...........                 .....              .....                                                          ",
"                                                      ...............            .........                  .....              .....                                                          ",
"                                                      ...............             ........                  .....              .....                                                          ",
"                                                      ......                      .......                   .....              .....                                                          ",
"                                                      ......                     ........                   .....              .....                                                          ",
"                                                      ......                    ..........                  .....              .....                                                          ",
"                                                      ......                    ...........                 .....              .....                                                          ",
"                                                      ......                   .....  .....                 .....              ......                                                         ",
"                                                      .................       ......  ......                .....              ........   ..                                                  ",
"                                                      .................       .....    ......               .....               ............                                                  ",
"                                                      .................      ......     ......              .....               .............                                                 ",
"                                                      .................     ......      ......              .....                ............                                                 ",
"                                                      .................     ......       ......             .....                  ........                                                   ",
"                                                                                                                                                                                              ",
"                                                                                                                                                                                              ",
"                                                                                                                                                                                              ",
"                                                                                                                                                                                              ",
"                                                                                                                                                                                              ",
"                                                                                                                                                                                              ",
"                                                                                                                                                                                              ",
"                                                                                                                                                                                              ",
"                                                                                                                                                                                              ",
"                                                                                                                                                                                              ",
"                                                                                                                                                                                              ",
"                                                                                                                                                                                              ",
"                                                                                                                                                                                              ",
"                                                                                                                                                                                              ",
"                                                                                                                                                                                              ",
"                                                                                                                                                                                              ",
"                                                                                                                                                                                              ",
"                                                                                                                                                                                              ",
"                                                                                                                                                                                              ",
"                                                                                                                                                                                              ",
"                                                                                                                                                                                              "};
