/* XPM */
static xpm_row_t const duck_Falling_xpm[] = {
/* columns rows colors chars-per-pixel */
"68 108 204 2 ",
"   c #000000",
".  c #090909",
"X  c #070503",
"o  c #170304",
"O  c #001C03",
"+  c #071A0A",
"@  c #141414",
"#  c #1C1C1C",
"$  c #1E171D",
"%  c #2A1516",
"&  c #012B03",
"*  c #003B01",
"=  c #023E0C",
"-  c #003605",
";  c #232423",
":  c #2A2C2A",
">  c #343434",
",  c #3C3C3C",
"<  c #383737",
"1  c #40383F",
"2  c #004400",
"3  c #004C01",
"4  c #00420A",
"5  c #014B0C",
"6  c #005200",
"7  c #01540B",
"8  c #005C0F",
"9  c #005C01",
"0  c #084912",
"q  c #045C12",
"w  c #095A15",
"e  c #1B4D13",
"r  c #01670B",
"t  c #016511",
"y  c #026A13",
"u  c #0B641A",
"i  c #086517",
"p  c #017213",
"a  c #007A15",
"s  c #395C32",
"d  c #1D7D3A",
"f  c #1E6426",
"g  c #23732B",
"h  c #2D6F36",
"j  c #465417",
"k  c #555A2B",
"l  c #784432",
"z  c #4A6625",
"x  c #443E43",
"c  c #444444",
"v  c #4B4B4B",
"b  c #545353",
"n  c #5B5B5B",
"m  c #555856",
"M  c #504D4D",
"N  c #60595F",
"B  c #675457",
"V  c #6D494A",
"C  c #446F4B",
"Z  c #526958",
"A  c #615A60",
"S  c #616161",
"D  c #696969",
"F  c #777677",
"G  c #7D7C7C",
"H  c #84171D",
"J  c #8B242B",
"K  c #97262B",
"L  c #983539",
"P  c #9C2B30",
"I  c #AB3A3F",
"U  c #A2363C",
"Y  c #B32A30",
"T  c #D5373E",
"R  c #FF222D",
"E  c #FE343E",
"W  c #FF2D37",
"Q  c #B7573E",
"!  c #A63A43",
"~  c #B33C43",
"^  c #BD3B44",
"/  c #D33D46",
"(  c #D63E51",
")  c #FD3B45",
"_  c #F03E45",
"`  c #8A4346",
"'  c #AB4246",
"]  c #B34349",
"[  c #AE5B44",
"{  c #BA5055",
"}  c #B26047",
"|  c #857B7B",
" . c #B9666A",
".. c #C7474D",
"X. c #D0484D",
"o. c #C5584A",
"O. c #C44955",
"+. c #DB4A57",
"@. c #F6434C",
"#. c #FD454D",
"$. c #E9485C",
"%. c #FF4C54",
"&. c #F94C56",
"*. c #E95357",
"=. c #F4535B",
"-. c #FE555E",
";. c #FF585F",
":. c #E5434B",
">. c #FF5364",
",. c #FF5C65",
"<. c #FF5D6D",
"1. c #EE5861",
"2. c #FF616B",
"3. c #FC686F",
"4. c #FE6671",
"5. c #FF6B74",
"6. c #FF6E78",
"7. c #FC747A",
"8. c #E17277",
"9. c #2F8847",
"0. c #498954",
"q. c #518C54",
"w. c #52935B",
"e. c #5F9E69",
"r. c #67966D",
"t. c #61A36C",
"y. c #62AB6E",
"u. c #8D7C8A",
"i. c #BB7D81",
"p. c #FC7D83",
"a. c #EE7E85",
"s. c #7AB387",
"d. c #75A387",
"f. c #828282",
"g. c #8D8D8D",
"h. c #858989",
"j. c #968A8C",
"k. c #939393",
"l. c #9B9B9B",
"z. c #BB9396",
"x. c #90A193",
"c. c #82A988",
"v. c #96B2B0",
"b. c #A5A5A5",
"n. c #AAAAAA",
"m. c #A7AAA5",
"M. c #B1ADAD",
"N. c #ACB3B3",
"B. c #B1B1B1",
"V. c #BCBBBB",
"C. c #B8B7B3",
"Z. c #B9AEB7",
"A. c #F7858B",
"S. c #FD858B",
"D. c #FE888E",
"F. c #F28085",
"G. c #FA8B91",
"H. c #FF939A",
"J. c #F8989E",
"K. c #FE9DA3",
"L. c #D8A5A9",
"P. c #FBA9AD",
"I. c #F7B8BB",
"U. c #E0B7BA",
"Y. c #91C4A6",
"T. c #A9C6AD",
"R. c #A3C9A6",
"E. c #ADCDB1",
"W. c #C6BFC4",
"Q. c #F4BFC1",
"!. c #FEBDC1",
"~. c #B9CFC3",
"^. c #B0E3E1",
"/. c #C4C3C3",
"(. c #CDC2CB",
"). c #CCCCCC",
"_. c #C9C5C5",
"`. c #D0C4CE",
"'. c #D4D4D4",
"]. c #DADADA",
"[. c #DAD4D7",
"{. c #C7D0CF",
"}. c #F5C2C5",
"|. c #FBC3C5",
" X c #FCCACC",
".X c #FDC7C9",
"XX c #FACFD1",
"oX c #FDDBDD",
"OX c #F9D5D6",
"+X c #E9DCDC",
"@X c #CDE9D2",
"#X c #CBE7D0",
"$X c #D0EED4",
"%X c #D3F1D7",
"&X c #C2E8E4",
"*X c #E5E4E4",
"=X c #EBEBEB",
"-X c #F7E7E8",
";X c #EDFCEE",
":X c #F4F4F4",
">X c #FCF6F6",
",X c #FDFEFE",
"<X c #F5FFFF",
"1X c None",
/* pixels */
"1X1X1X1X1X1X1X1X1X1X1X1X1X1X1X1X1X1X1X1X1X1X1X1X1X1X1X1X1X1X1X1X1X1X1X1X1X1X1X1X1X1X1X1X1X1X1X1X1X1X1X1X1X1X1X1X1X1X1X1X1X1X1X1X1X1X1X1X",
"1X1X1X1X1X1X1X1X1X1X1X1X1X1X1X1X1X1X1X1X1X1X1X1X1X1X1X1X1X1X1X1X1X1X1X1X1X1X1X1X1X1X1X1X1X1X1X1X1X1X1X1X1X1X1X1X1X1X1X1X1X1X1X1X1X1X1X1X",
"1X1X1X1X1X1X1X1X1X1X1X1X1X1X1X1X1X1X1X1X1X1X1X1X1X1X1X1X1X1X1X1X1X1X1X1X1X1X1X1X1X1X1X1X1X1X1X1X1X1X1X1X1X1X1X1X1X1X1X1X1X1X1X1X1X1X1X1X",
"1X1X1X1X1X1X1X1X1X1X1X1X1X1X1X1X1X1X1X1X1X1X1X1X1X1X1X1X1X1X1X1X1X1X1X1X1X1X1X1X1X1X1X1X1X1X1X1X1X1X1X1X1X1X1X1X1X1X1X1X1X1X1X1X1X1X1X1X",
"1X1X1X1X1X1X1X1X1X1X1X1X1X1X1X1X1X1X1X1X1X1X1X1X1X1X1X1X1X1X1X1X1X1X1X1X1X1X1X1X1X1X1X1X1X1X1X1X1X1X1X1X1X1X1X1X1X1X1X1X1X1X1X1X1X1X1X1X",
"1X1X1X1X1X1X1X1X1X1X1X1X1X1X1X1X1X1X1X1X1X1X1X1X1X1X1X1X1X1X1X1X1X1X1X1X1X1X1X1X1X1X1X1X1X1X1X1X1X1X1X1X1X1X1X1X1X1X1X1X1X1X1X1X1X1X1X1X",
"1X1X1X1X1X1X1X1X1X1X1X1X1X1X1X1X1X1X1X1X1X1X1X1X1X1X1X1X1X1X1X1X1X1X1X1X1X1X1X1X1X1X1X1X1X1X1X1X1X1X1X1X1X1X1X1X1X1X1X1X1X1X1X1X1X1X1X1X",
"1X1X1X1X1X1X1X1X1X1X1X1X1X1X1X1X1X1X1X1X1X1X1X1X1X1X1X1X1X1X1X1X1X1X1X1X1XX   1X1X1X1X1X    1X1X1X1X1X1X1X1X1X1X1X1X1X1X1X1X1X1X1X1X1X1X",
"1X1X1X1X1X1X1X1X1X1X1X1X1X1X1X1X1X1X1X1X1X1X1X1X1X1X1X1X1X1X1X1X1X1X1X1X1X      1X1X1X      1X1X1X1X1X1X1X1X1X1X1X1X1X1X1X1X1X1X1X1X1X1X",
"1X1X1X1X1X1X1X1X1X1X1X1X1X1X1X1X1X1X1X1X1X1X1X1X1X1X1X1X1X1X1X1X1X1X1X1X1X      1X1X        1X1X1X1X1X1X1X1X1X1X1X1X1X1X1X1X1X1X1X1X1X1X",
"1X1X1X1X1X1X1X1X1X1X1X1X1X1X1X1X1X1X1X1X1X1X1X1X1X1X1X1X1X1X1X1X1X1X1X1X1X  . X             1X1X1X1X1X1X1X1X1X1X1X1X1X1X1X1X1X1X1X1X1X1X",
"1X1X1X1X1X1X1X1X1X1X1X1X1X1X1X1X1X1X1X1X1X1X1X1X1X1X1X1X1X1X1X1X1X1X1X1X1X                  1X1X1X1X1X1X1X1X1X1X1X1X1X1X1X1X1X1X1X1X1X1X",
"1X1X1X1X1X1X1X1X1X1X1X1X1X1X1X1X1X1X1X1X1X1X1X1X1X1X1X1X1X1X1X1X1X1X1X1X1X@         X     1X1X1X1X1X1X1X1X1X1X1X1X1X1X1X1X1X1X1X1X1X1X1X",
"1X1X1X1X1X1X1X1X1X1X1X1X1X1X1X1X1X1X1X1X1X1X1X1X1X1X1X1X1X1X1X1X1X1X1XB.h.>         . X 1X1X1X1X1X1X1X1X1X1X1X1X1X1X1X1X1X1X1X1X1X1X1X1X",
"1X1X1X1X1X1X1X1X1X1X1X1X1X1X1X1X1X1X1X1X1X1X1X1X1X1X1X1X1X1X1X1X1X1X).,X).N         . 1X1X1X1X1X1X1X1X1X1X1X1X1X1X1X1X1X1X1X1X1X1X1X1X1X",
"1X1X1X1X1X1X1X1X1X1X1X1X1X1X1X1X1X1X1X1X1X1X1X1X1X1X1X1X1X1X1X1X1Xl.:X,X:Xl.v < @   . 1X1X1X1X1X1X1X1X1X1X1X1X1X1X1X1X1X1X1X1X1X1X1X1X1X",
"1X1X1X1X1X1X1X1X1X1X1X1X1X1X1X1X1X1X1X1X1X1X1X1X1XL ] 1X1X1X1X1XM.[.,X,X,X].B.G <     1X1X1X1X1X1X1X1X1X1X1X1X1X1X1X1X1X1X1X1X1X      1X",
"1X1X1X1X1X1X1X1X1X1X1X1X1X1X1X1X1X1X1X1X1X1X1X1X1X+.;.Y 1X1X1Xv.,X,X,X,X,X,X,XB.v     1X1X1X1X1X1X1X1X1X1X1X1X1X1X1X1X1X1X1X1X1X      1X",
"1X1X1X1X1X1X1X1X1X1X1X1X1X1X1X1X1X1X1X1X1X1X1X1X1X*.,.:.H 1X1X{.,X,X,X:X,X,X,X/.b       1X1X1X1X1X1X1X1X1X1X1X1X1X1X1X1X1X1X1X      X 1X",
"1X1X1X1X1X1X1X1X1X1X1X1X1X1X1X1X1X1X1Xj.M.h.1X1X1X^ ,.=./ ~ i.+X,X,X,X>X,X,X,X/.n         v k.n.1X1X1X1X1Xn.n.B.B./._.).g.x         . 1X",
"1X1X1X1X1X1X1X1X1X1X1X1X1X1X1X1X1X1X1X'.,X~.1X1X1XP -.,.%.-.A.|.,X<X<X,X,X,X,XC.b         D ].,XV.1X1X1Xl.,X,X,X,X,X,X,XB.M X X     . 1X",
"1X1X1X1X1X1X1X1X1X1X1X1X1X1X1X1X1X1Xj.,X,X&X1X1X1XK =.2.,.2.7.P.}.OX:X>X,X>X:Xn.b         f.,X,X[.1X1X1Xn.,X,X,X,X,X*X).g.s   X     . 1X",
"1X1X1X1X1X1X1X1X1X1X1X1X1X1X1X1X1X^ L.,X,X^.1X1X1XK -.4.3.,.,.5.A.P.OX<X,X,X>XM.b         f.,X,X'.1X1X1Xn.,X,X,X,X).g.S c #   X     X 1X",
"1X1X1X1X1X1X1X1X1X1X1X1X1X1X1X1XY -.P.>X,Xv.1X1X1XP -.5.4.-.@.@.-.A.}.>X,X,X,XM.b         D ].,XV.1X1X1Xk.,X,X,X,Xb.v         . X     1X",
"1X1X1X1X1X1X1X1X1X1X1X1X1X1X1XJ T ,.H.!.I.| 1X1X1XK -.6.3.=._ E #.7.I.,X,X,X>Xn.M     X X x G k.k.1X1X1XF n.V.:X,XC.,         . X     1X",
"1X1X1X1X1X1X1X1X1X1X1X1X1X1X~ X.&.,.6.S.6.` o   o K -.5.3.-.@.) %.S.Q.,X,X>X:Xm.v     X . @ ; ; D C.).l.n v F ].,X'.b         . X     1X",
"1X1X1X1X1X1X1X1X1X1X1X1X1X~ -.,.,.=.,.2.-.U %   % L -.3.2.;.@.#.-.A.}.,X,X,X,Xn.v               S '.,XB.,   , C.,X[.S         .       1X",
"1X1X1X1X1X1X1X1X1X1X1X1X1X..2.3.,.=.,.6.7. .V v V { ,.,.2.;.#.) %.S.I.,X,X<X<XU.b         . > c g.).).k.#   @ F B.l.b . X     X       1X",
"1X1X1X1X1X1X1X1X1X1X1X1X1X..,.2.-.-.7.J.I.U.C.B.z.8.,.-.,.,.%.) #.p.I.,X,X,X,X/.n         > g.V.V.l.S x .   . > v c ;   X             1X",
"1X1X1X1X1X1X1X1X1X1X1X1X1X] >.-.%.-.A.|.,X,X,X,X|.S.-.#.%.-.%.#.-.A.}.,X,X,X,XM.b         D {.,X).S         . X                       1X",
"1X1X1X1X1X1X1X1X1X1X1X1X1X' =.&.#.-.G.OX,X,X,X,XOXD.%.W E #.;.3.D.P.OX,X=X_.B.| , . ; , v k._.[.l.>       . X                       1X1X",
"1X1X1X1X1X1X1X1X1X1X1X1X1X! =.&.#.>.A.XX,X,X,X,X XS.#.R R #.5.J. XoX-X,X_.f.v < % . v g.b.B.k.D c @       X                       1X1X1X",
"1X1X1X1X1X1X1X1X1X1X1X1X1X~ -.-.%.-.A.|.,X,X,X,X XD.-.E E -.A.}.,X,X,X,XM.b         D '.>X).S         . X                       1X1X1X1X",
"1X1X1X1X1X1X1X1X1X1X1X1X1X..,.,.%.-.a.}.:X:X:X:XXXP.D.6.6.S.I.-X,X,X,X,Xn.c         D =X,X=Xb       . . X     X . . X           1X1X1X1X",
"1X1X1X1X1X1X1X1X1X1X1X1X1XO.,.,.%.=.a.Q.:X:X:X:X-XOX X|.!. XoX:X,X,X,X,XB.v         S =X,X=XS       X . X       X               1X1X1X1X",
"1X1X1X1X1X1X1X1X1X1X1X1X1X] -.-.%.-.A. X,X,X,X,X>X>X,X,X>X,X:X:X,X,X,X,XB.b         D ).,X).S       X .                         1X1X1X1X",
"1X1X1X1X1X1X1X1X1X1X1X1X1X1X~ / @.,.H.oX,X,X,X,X,X,X,X,X,X,X,X:X>X>X,X>Xn.c . # c S k.B.b.g.v . . X   X X                     1X1X1X1X1X",
"1X1X1X1X1X1X1X1X1X1X1X1X1X1X1XJ / ,.P.-X,X,X,X,X,X,X,X,X,X,X<X<X,X>X<X:Xl.>   , l.).).g.v , #   . X                         1X1X1X1X1X1X",
"1X1X1X1X1X1X1X1X1X1X1X1X1X1X1X1XY -.H.XX,X<X,X,X>X>X,X,X,X>X:X:X,X,X,X,Xl.;   c V.,X[.S         . X                       1X1X1X1X1X1X1X",
"1X1X1X1X1X1X1X1X1X1X1X1X1X1X1X1X1X~  .z.N.N.B.B./.*X>X:X>X>X:X:X,X,X,X,Xn.>   < k.).b.,         .                         1X1X1X1X1X1X1X",
"1X1X1X1X1X1X1X1X1X1X1X1X1X1X1X1X1X1X1X1X1X1X1X1Xf./.>X,X,X>X:X=X,X,X,X,XV.c   # c n b #                                   1X1X1X1X1X1X1X",
"1X1X1X1X1X1X1X1X1X1X1X1X1X1X1X1X1X1X1X1X1X1X1X1X1XB.,X,X,X,X:X:X>X,X,X,XB.v         .                                     1X1X1X1X1X1X1X",
"1X1X1X1X1X1X1X1X1X1X1X1X1X1X1X1X1X1X1X1X1X1X1X1X1Xb.,X,X,X,X:X<X,X=X_.B.G ,             . X                             1X1X1X1X1X1X1X1X",
"1X1X1X1X1X1X1X1X1X1X1X1X1X1X1X1X1X1X1X1X1X1X1X1X1Xn.,X,X,X,X,X>X,X_.f.v < #             X X                           1X1X1X1X1X1X1X1X1X",
"1X1X1X1X1X1X1X1X1X1X1X1X1X1X1X1X1X1X1X1X1X1X1X1X1XB.,X,X,X,X,X,X,XB.v         .                                     1X1X1X1X1X1X1X1X1X1X",
"1X1X1X1X1X1X1X1X1X1X1X1X1X1X1X1X1X1X1X1X1X1X1X1X1XB.>X,X,X,X,X,X,Xb.,         . . . X X                           1X1X1X1X1X1X1X1X1X1X1X",
"1X1X1X1X1X1X1X1X1X1X1X1X1X1X1X1X1X1X1X1X1X1X1X1X1Xn.>X>X,X,X,X,X,Xn.,         . X X X                           1X1X1X1X1X1X1X1X1X1X1X1X",
"1X1X1X1X1X1X1X1X1X1X1X1X1X1X1X1X1X1X1X1X1X1X1X1X1XN.,X,X,X,X,X,X<Xn.v         . X                             1X1X1X1X1X1X1X1X1X1X1X1X1X",
"1X1X1X1X1X1X1X1X1X1X1X1X1X1X1X1X1X1X1X1X1X1X1X1X1XV.,X,X,X,X,X,X,XC.b . X     .                             1X1X1X1X1X1X1X1X1X1X1X1X1X1X",
"1X1X1X1X1X1X1X1X1X1X1X1X1X1X1X1X1X1X1X1X1X1X1X1X1X/.,X,X,X,X,X,X,XB.M   X     . X                         1X1X1X1X1X1X1X1X1X1X1X1X1X1X1X",
"1X1X1X1X1X1X1X1X1X1X1X1X1X1X1X1X1X1X1X1X1X1X1X1X1XB.,X,X,X,X,X,X,XN.v         . X                       1X1X1X1X1X1X1X1X1X1X1X1X1X1X1X1X",
"1X1X1X1X1X1X1X1X1X1X1X1X1X1X1X1X1X1X1X1X1X1X1X1X1X1XB._.*X>X,X,X,Xn.v         .                       1X1X1X1X1X1X1X1X1X1X1X1X1X1X1X1X1X",
"1X1X1X1X1X1X1X1X1X1X1X1X1X1X1X1X1X1X1X1X1X1X1X1X1X1X1Xd.L.:X,X,X,Xn.v         X X                   1X1X1X1X1X1X1X1X1X1X1X1X1X1X1X1X1X1X",
"1X1X1X1X1X1X1X1X1X1X1X1X1X1X1X1X1X1X1X1X1X1X1X1X1X1X1X1Xb.<X,X,X>Xn.v         . X                 1X1X1X1X1X1X1X1X1X1X1X1X1X1X1X1X1X1X1X",
"1X1X1X1X1X1X1X1X1X1X1X1X1X1X1X1X1X1X1X1X1X1X1X1X1X1X1X1Xn.,X,X,X>Xb.c         .                   1X1X1X1X1X1X1X1X1X1X1X1X1X1X1X1X1X1X1X",
"1X1X1X1X1X1X1X1X1X1X1X1X1X1X1X1X1X1X1X1X1X1X1X1X1X1X1X1XZ.,X,X,X:Xl.c         . X                 1X1X1X1X1X1X1X1X1X1X1X1X1X1X1X1X1X1X1X",
"1X1X1X1X1X1X1X1X1X1X1X1X1X1X1X1X1X1X1X1X1X1X1X1X1X1X1X1Xn.,X,X,X,Xn.v         . X                 1X1X1X1X1X1X1X1X1X1X1X1X1X1X1X1X1X1X1X",
"1X1X1X1X1X1X1X1X1X1X1X1X1X1X1X1X1X1X1X1X1X1X1X1X1X1X1X1XF B.].,X,X/.n         .                 1X1X1X1X1X1X1X1X1X1X1X1X1X1X1X1X1X1X1X1X",
"1X1X1X1X1X1X1X1X1X1X1X1X1X1X1X1X1X1X1X1X1X1X1X1X1X1X1X1X< v l.:X,X].S         . X             1X1X1X1X1X1X1X1X1X1X1X1X1X1X1X1X1X1X1X1X1X",
"1X1X1X1X1X1X1X1X1X1X1X1X1X1X1X1X1X1X1X1X1X1X1X1X1X1X1X1X    S ).,X).S         .             1X1X1X1X1X1X1X1X1X1X1X1X1X1X1X1X1X1X1X1X1X1X",
"1X1X1X1X1X1X1X1X1X1X1X1X1X1X1X1X1X1X1X1X1X1X1X1X1X1X1X1X1X  > f.n.k.c         X             1X1X1X1X1X1X1X1X1X1X1X1X1X1X1X1X1X1X1X1X1X1X",
"1X1X1X1X1X1X1X1X1X1X1X1X1X1X1X1X1X1X1X1X1X1X1X1X1X1X1X1X1X1X@ , v c ;                       1X1X1X1X1X1X1X1X1X1X1X1X1X1X1X1X1X1X1X1X1X1X",
"1X1X1X1X1X1X1X1X1X1X1X1X1X1X1X1X1X1X1X1X1X1X1X1X1X1X1X1X1X1X1X                              1X1X1X1X1X1X1X1X1X1X1X1X1X1X1X1X1X1X1X1X1X1X",
"1X1X1X1X1X1X1X1X1X1X1X1X1X1X1X1X1X1X1X1X1X1X1X1X1X1X1X1X1X1X1X                            1X1X1X1X1X1X1X1X1X1X1X1X1X1X1X1X1X1X1X1X1X1X1X",
"1X1X1X1X1X1X1X1X1X1X1X1X1X1X1X1X1X1X1X1X1X1X1X1X1X1X1X1X1X1X1X                          1X1X1X1X1X1X1X1X1X1X1X1X1X1X1X1X1X1X1X1X1X1X1X1X",
"1X1X1X1X1X1X1X1X1X1X1X1X1X1X1X1X1X1X1X1X1X1X1X1X1X1X1X1X1X1X1X                        1X1X1X1X1X1X1X1X1X1X1X1X1X1X1X1X1X1X1X1X1X1X1X1X1X",
"1X1X1X1X1X1X1X1X1X1X1X1X1X1X1X1X1X1X1X1X1X1X1X1X1X1X1X1X1X1X1X1X. . X     X X   X X   1X1X1X1X1X1X1X1X1X1X1X1X1X1X1X1X1X1X1X1X1X1X1X1X1X",
"1X1X1X1X1X1X1X1X1X1X1X1X1X1X1X1X1X1X1X1X1X1X1X1X1X1X1X1X1X1X1X1X1XX . . . . . . . . X 1X1X1X1X1X1X1X1X1X1X1X1X1X1X1X1X1X1X1X1X1X1X1X1X1X",
"1X1X1X1X1X1X1X1X1X1X1X1X1X1X1X1X1X1X1X1X1X1X1X1X1X1X1X1X1X1X1X1X1X1X                  1X1X1X1X1X1X1X1X1X1X1X1X1X1X1X1X1X1X1X1X1X1X1X1X1X",
"1X1X1X1X1X1X1X1X1X1X1X1X1X1X1X1X1X1X1X1X1X1X1X1X1X1X1X1X1X1X1X1X1X1X                  1X1X1X1X1X1X1X1X1X1X1X1X1X1X1X1X1X1X1X1X1X1X1X1X1X",
"1X1X1X1X1X1X1X1X1X1X1X1X1X1X1X1X1X1X1X1X1X1X1X1X1X1X1X1X1X1X1X1X1X1X                  1X1X1X1X1X1X1X1X1X1X1X1X1X1X1X1X1X1X1X1X1X1X1X1X1X",
"1X1X1X1X1X1X1X1X1X1X1X1X1X1X1X1X1X1X1X1X1X1X1X1X1X1X1X1X1X1X1X1X1X1X                  1X1X1X1X1X1X1X1X1X1X1X1X1X1X1X1X1X1X1X1X1X1X1X1X1X",
"1X1X1X1X1X1X1X1X1X1X1X1X1X1X1X1X1X1X1X1X1X1X1X1X1X1X1X1X1X1X1X1X1X1Xx A A A A A A A c 1X1X1X1X1X1X1X1X1X1X1X1X1X1X1X1X1X1X1X1X1X1X1X1X1X",
"1X1X1X1X1X1X1X1X1X1X1X1X1X1X1X1X1X1X1X1X1X1X1X1X1X1X1X1X1X1X1X1X1X1Xg.(.`.`.(.`.`.W.g.1X1X1X1X1X1X1X1X1X1X1X1X1X1X1X1X1X1X1X1X1X1X1X1X1X",
"1X1X1X1X1X1X1X1X1X1X1X1X1X1X1X1X1X1X1X1X1X1X1X1X1X1X1X1X1X1X1X1X1X1XB.,X,X,X,X,X,X,XB.1X1X1X1X1X1X1X1X1X1X1X1X1X1X1X1X1X1X1X1X1X1X1X1X1X",
"1X1X1X1X1X1X1X1X1X1X1X1X1X1X1X1X1X1X1X1X1X1X1X1X1X1X1X1X1X1X1X1X1X1Xx.@X$X$X@X$X$X@Xx.1X1X1X1X1X1X1X1X1X1X1X1X1X1X1X1X1X1X1X1X1X1X1X1X1X",
"1X1X1X1X1X1X1X1X1X1X1X1X1X1X1X1X1X1X1X1X1X1X1X1X1X1X1X1X1X1X1X1X1X1XC t.y.t.t.t.y.t.C 1X1X1X1X1X1X1X1X1X1X1X1X1X1X1X1X1X1X1X1X1X1X1X1X1X",
"1X1X1X1X1X1X1X1X1X1X1X1X1X1X1X1X1X1X1X1X1X1X1X1X1X1X1X1X1X1X1X1X1X1X4 q y t 8 t t q 4 1X1X1X1X1X1X1X1X1X1X1X1X1X1X1X1X1X1X1X1X1X1X1X1X1X",
"1X1X1X1X1X1X1X1X1X1X1X1X1X1X1X1X1X1X1X1X1X1X1X1X1X1X1X1X1X1X1X1X1X& * 2 3 2 2 2 3 2 * & 1X1X1X1X1X1X1X1X1X1X1X1X1X1X1X1X1X1X1X1X1X1X1X1X",
"1X1X1X1X1X1X1X1X1X1X1X1X1X1X1X1X1X1X1X1X1X1X1X1X1X1X1X1X1X4 5 0 0 4 6 6 6 6 3 3 3 3 6 3 4 1X1X1X1X1X1X1X1X1X1X1X1X1X1X1X1X1X1X1X1X1X1X1X",
"1X1X1X1X1X1X1X1X1X1X1X1X1X1X1X1X1X1X1X1X1X1X1X1X1X1X1X1X4 8 t t t 8 8 8 8 8 t 8 8 8 t y q 4 1X1X1X1X1X1X1X1X1X1X1X1X1X1X1X1X1X1X1X1X1X1X",
"1X1X1X1X1X1X1X1X1X1X1X1X1X1X1X1X1X1X1X1X1X1X1X1X1X1X1X= w y r r 9 6 6 6 7 q u u w i y p y 4 1X1X1X1X1X1X1X1X1X1X1X1X1X1X1X1X1X1X1X1X1X1X",
"1X1X1X1X1X1X1X1X1X1X1X1X1X1X1X1X1X1X1XL I 1X1X1X1X1X4 w i i r 9 6 3 2 2 3 8 i u w t y p t 4 1X1X1X1X1X1X1X1X1X1X1X1X1X1X1X1X1X1X1X1X1X1X",
"1X1X1X1X1X1X1X1X1X1X1X1X1X1X1X1X1X1X1XX.-.( 1X1X1X* q y y 8 8 q 8 8 8 8 8 8 8 8 8 8 t t q 4 1X1X1X1X1X1X1X1X1X1X1X1X1X1X1X1X1X1X1X1X1X1X",
"1X1X1X1X1X1X1X1X1X1X1X1X1X1X1X1X1X1X1X*.5.>.! 1X1Xe t r 6 3 w h 0.w.t.t.9.i 3 2 6 8 i t q 5 - 1X1X1X1X1X1X1X1X1X1X1X1X1X1X1X1X1X1X1X1X1X",
"1X1X1X1X1X1X1X1X1X1X1X1X1X1X1X1X1X1X1X*.5.5.+.~ l s t 9 2 2 f r.T.~.#X@Xc.g 2 - 2 8 i t 8 7 7 4 1X1X1X1X1X1X1X1X1X1X1X1X1X1X1X1X1X1X1X1X",
"1X1X1X1X1X1X1X1X1X1X1X1X1X1X1X1X1X1X1XI -.<.<.>.[ k 8 6 3 8 q.T.,X,X,X,XE.0.t 3 6 8 i w 8 t y 8 4 1X1X1X1X1X1X1X1X1X1X1X1X1X1X1X1X1X1X1X",
"1X1X1X1X1X1X1X1X1X1X1X1X1X1X1X1X1X1X1X1XL O.<.<.o.k q u h e.R.;X,X,X[.).m.c.t.q.g 8 7 7 8 y p t 5 1X1X1X1X1X1X1X1X1X1X1X1X1X1X1X1X1X1X1X",
"1X1X1X1X1X1X1X1X1X1X1X1X1X1X1X1X1X1X1X1X1X1X$.,.o.j q d s.#X;X,X,X[.G n F C.@XE.w.8 4 3 t i y t 4 1X1X1X1X1X1X1X1X1X1X1X1X1X1X1X1X1X1X1X",
"1X1X1X1X1X1X1X1X1X1X1X1X1X1X1X1X1X1X1X1X1X1X+.-.Q j t 9.Y.<X,X,X,Xk.;   x Z.,X%Xy.8 2 3 8 i y 8 4 1X1X1X1X1X1X1X1X1X1X1X1X1X1X1X1X1X1X1X",
"1X1X1X1X1X1X1X1X1X1X1X1X1X1X1X1X1X1X1X1X1X1X( =.Q j r d d.W./.C.m.m     $ u.(.T.w.8 3 6 8 i p t 4 1X1X1X1X1X1X1X1X1X1X1X1X1X1X1X1X1X1X1X",
"1X1X1X1X1X1X1X1X1X1X1X1X1X1X1X1X1X! ' L L ^ $.=.Q z r u s N N b v ;     . 1 N Z f 8 7 7 q t y t 5 1X1X1X1X1X1X1X1X1X1X1X1X1X1X1X1X1X1X1X",
"1X1X1X1X1X1X1X1X1X1X1X1X1X1X1X1X~ -.2.,.-.>.>.>.} z 8 * +   X     X X         O = 8 y t 8 t t 8 4 1X1X1X1X1X1X1X1X1X1X1X1X1X1X1X1X1X1X1X",
"1X1X1X1X1X1X1X1X1X1X1X1X1X1X1X! =.5.6.5.5.5.<.,.o.k 4 & X           X X         - t a p t 8 7 4 1X1X1X1X1X1X1X1X1X1X1X1X1X1X1X1X1X1X1X1X",
"1X1X1X1X1X1X1X1X1X1X1X1X1XL X.1.2.4.3.3.4.5.5.2...1X1X1X            X         X * r a a y 5 = 1X1X1X1X1X1X1X1X1X1X1X1X1X1X1X1X1X1X1X1X1X",
"1X1X1X1X1X1X1X1X1X1X1X1X1X~ -.2.,.-.=.=.,.,.,.-.] 1X1X1X    X                 O 4 8 p y q = 1X1X1X1X1X1X1X1X1X1X1X1X1X1X1X1X1X1X1X1X1X1X",
"1X1X1X1X1X1X1X1X1X1X1X1X1XL X.O.] ! U U I ] ] ~ 1X1X1X1X1X. . . . . X   X X . + - = 5 5 4 1X1X1X1X1X1X1X1X1X1X1X1X1X1X1X1X1X1X1X1X1X1X1X",
"1X1X1X1X1X1X1X1X1X1X1X1X1X1X1X1X1X1X1X1X1X1X1X1X1X1X1X1X1X1X1X1X1X1X1X1X1X1X1X1X1X1X1X1X1X1X1X1X1X1X1X1X1X1X1X1X1X1X1X1X1X1X1X1X1X1X1X1X",
"1X1X1X1X1X1X1X1X1X1X1X1X1X1X1X1X1X1X1X1X1X1X1X1X1X1X1X1X1X1X1X1X1X1X1X1X1X1X1X1X1X1X1X1X1X1X1X1X1X1X1X1X1X1X1X1X1X1X1X1X1X1X1X1X1X1X1X1X",
"1X1X1X1X1X1X1X1X1X1X1X1X1X1X1X1X1X1X1X1X1X1X1X1X1X1X1X1X1X1X1X1X1X1X1X1X1X1X1X1X1X1X1X1X1X1X1X1X1X1X1X1X1X1X1X1X1X1X1X1X1X1X1X1X1X1X1X1X",
"1X1X1X1X1X1X1X1X1X1X1X1X1X1X1X1X1X1X1X1X1X1X1X1X1X1X1X1X1X1X1X1X1X1X1X1X1X1X1X1X1X1X1X1X1X1X1X1X1X1X1X1X1X1X1X1X1X1X1X1X1X1X1X1X1X1X1X1X",
"1X1X1X1X1X1X1X1X1X1X1X1X1X1X1X1X1X1X1X1X1X1X1X1X1X1X1X1X1X1X1X1X1X1X1X1X1X1X1X1X1X1X1X1X1X1X1X1X1X1X1X1X1X1X1X1X1X1X1X1X1X1X1X1X1X1X1X1X",
"1X1X1X1X1X1X1X1X1X1X1X1X1X1X1X1X1X1X1X1X1X1X1X1X1X1X1X1X1X1X1X1X1X1X1X1X1X1X1X1X1X1X1X1X1X1X1X1X1X1X1X1X1X1X1X1X1X1X1X1X1X1X1X1X1X1X1X1X",
"1X1X1X1X1X1X1X1X1X1X1X1X1X1X1X1X1X1X1X1X1X1X1X1X1X1X1X1X1X1X1X1X1X1X1X1X1X1X1X1X1X1X1X1X1X1X1X1X1X1X1X1X1X1X1X1X1X1X1X1X1X1X1X1X1X1X1X1X",
"1X1X1X1X1X1X1X1X1X1X1X1X1X1X1X1X1X1X1X1X1X1X1X1X1X1X1X1X1X1X1X1X1X1X1X1X1X1X1X1X1X1X1X1X1X1X1X1X1X1X1X1X1X1X1X1X1X1X1X1X1X1X1X1X1X1X1X1X",
"1X1X1X1X1X1X1X1X1X1X1X1X1X1X1X1X1X1X1X1X1X1X1X1X1X1X1X1X1X1X1X1X1X1X1X1X1X1X1X1X1X1X1X1X1X1X1X1X1X1X1X1X1X1X1X1X1X1X1X1X1X1X1X1X1X1X1X1X",
"1X1X1X1X1X1X1X1X1X1X1X1X1X1X1X1X1X1X1X1X1X1X1X1X1X1X1X1X1X1X1X1X1X1X1X1X1X1X1X1X1X1X1X1X1X1X1X1X1X1X1X1X1X1X1X1X1X1X1X1X1X1X1X1X1X1X1X1X",
"1X1X1X1X1X1X1X1X1X1X1X1X1X1X1X1X1X1X1X1X1X1X1X1X1X1X1X1X1X1X1X1X1X1X1X1X1X1X1X1X1X1X1X1X1X1X1X1X1X1X1X1X1X1X1X1X1X1X1X1X1X1X1X1X1X1X1X1X"
};
