/* XPM */
static xpm_row_t const heart_full_xpm[] = {
/* columns rows colors chars-per-pixel */
"52 46 72 1 ",
"  c #000101",
". c #0D0301",
"X c #01020B",
"o c #140203",
"O c #1B0302",
"+ c #1B030A",
"@ c #010113",
"# c #150212",
"$ c #220302",
"% c #2C0102",
"& c #24020B",
"* c #2E0409",
"= c #360303",
"- c #3A0203",
"; c #210412",
": c #4E0202",
"> c #520505",
", c #5D0203",
"< c #570408",
"1 c #5F0609",
"2 c #5C080F",
"3 c #480810",
"4 c #600303",
"5 c #6C0506",
"6 c #65070B",
"7 c #69080B",
"8 c #750505",
"9 c #7C0606",
"0 c #760308",
"q c #7C0708",
"w c #75080A",
"e c #810101",
"r c #8C0607",
"t c #860708",
"y c #8A0708",
"u c #830D0E",
"i c #930404",
"p c #9B0404",
"a c #A60303",
"s c #AA0305",
"d c #B50304",
"f c #B90405",
"g c #C50303",
"h c #CC0404",
"j c #D50203",
"k c #DB0303",
"l c #E30203",
"z c #ED0102",
"x c #F40202",
"c c #FE0000",
"v c #FE0B0C",
"b c #FE1010",
"n c #FE1B1C",
"m c #FE2020",
"M c #FE2B2C",
"N c #EC4141",
"B c #FE4A4A",
"V c #FE5757",
"C c #FE5758",
"Z c #FE5858",
"A c #FE6262",
"S c #FE6F6F",
"D c #FF9D9D",
"F c #FFA6A6",
"G c #FFACAC",
"H c #FFBABA",
"J c #FFCFCF",
"K c #FFD0D0",
"L c #FFDCDC",
"P c #FFEEEF",
"I c #FFFDFD",
"U c None",
/* pixels */
"UUUUUUU              UUUUUUUUUUX             UUUUUUU",
"UUUUUU               UUUUUUUUUUX             UUUUUUU",
"UUUUUU.....oOOOOOOOOOUUUUUUUUUUOOOOOOOOOOOOOOUUUUUUU",
"UUUX  >gggghjjjjjjjji .XUUUU Xosjjjjjjjjjjjjh-  UUUU",
"UUUX  6ccccccccccccca  XUUUU  ogccccccccccccx-  @UUU",
"UUUX  4xccmMMmccccccp   UUUU  .gccccccccccccz=  XUUU",
"UU&psahccvHPPDcccccchqqw;UU3qqulccccccccccccxpqq2UUU",
"  $lcccccbKIIGcccccccccl*  7ccccccccccccccccccccp   ",
"  $lcccccvKIIGcccccccccl$  5ccccccccccccccccccccp   ",
"  $lccnCZAFGGScccccccccz-OOqccccccccccccccccccccp   ",
"  $lccBIIIVccccccccccccxkhjlccccccccccccccccccccp   ",
"  OlccBPIIVcccccccccccxcccvcccccccccccccccccccccp   ",
"  OjccBIIIVccccccccccccccccxccccccccccccccccccccp   ",
"  OkccBIIIZcccccccccccccccccccccccccccccccccccccp   ",
"  OkccBIIIZcccccccccccccccccccccccccccccccccccccp   ",
"  OkccBIIIZcccccccccccccccccccccccccccccccccccccp   ",
"  OgkjNLLLBcccccccccccccccccccccccccccccccccckkkr   ",
"UUUOOOummnvccxccccccccccccccccccccccccccccccx:OO+UUU",
"UUUX  8cccccccccccccccccccccccccccccccccccccz-  XUUU",
"UUUX  8cccccccccccccccccccccccccccccccccccccz-  XUUU",
"UUUX  8cccccccccccccccccccccccccccccccccccccx=  XUUU",
"UUU   8cccccccccccccccccccccccccccccccccccccz-  XUUU",
"UUUX  8cccccccccccccccccccccccccccccccccccccz-  @UUU",
"UUUX  5zzzxccccccccccccccccccccccccccccccclzk-  XUUU",
"UUUUUU&%%-jccccccccccccccccccccccccccccccd%%*UUUUUUU",
"UUUUUUUX ohcccccccccccccccccccccccccccccca  XUUUUUUU",
"UUUUUUUX ohcccccccccccccccccccccccccccccca. XUUUUUUU",
"UUUUUUUUUU78wfcccccccccccccccccccccccxrw86UUUUUUUUUU",
"UUUUUUUUUUX  9cccccccccccccccccccccccz%   UUUUUUUUUU",
"UUUUUUUUUUX  tcccccccccccccccccccccccx%   UUUUUUUUUU",
"UUUUUUUUUUXXX8kkkcccccccccccccccccxkkh*XXXUUUUUUUUUU",
"UUUUUUUUUUUUU$&$=jcccccccccccccccca&$$UUUUUUUUUUUUUU",
"UUUUUUUUUUUUUU  ojccccccccccccccccp   UUUUUUUUUUUUUU",
"UUUUUUUUUUUUU X ojcccccccccccxccccp   UUUUUUUUUUUUUU",
"UUUUUUUUUUUUUU@@#tttdcccccccccxaty6@@@UUUUUUUUUUUUUU",
"UUUUUUUUUUUUUUUUUX  1ccccccccvz-  XUUUUUUUUUUUUUUUUU",
"UUUUUUUUUUUUUUUUU   4cccxcvcccx-   UUUUUUUUUUUUUUUUU",
"UUUUUUUUUUUUUUUUU   ,kjkxcczkkh-  UUUUUUUUUUUUUUUUUU",
"UUUUUUUUUUUUUUUUUUUUU$O=kccaOO$UUUUUUUUUUUUUUUUUUUUU",
"UUUUUUUUUUUUUUUUUUUUU  Ojccr  XUUUUUUUUUUUUUUUUUUUUU",
"UUUUUUUUUUUUUUUUUUUUU  Ojcci  XUUUUUUUUUUUUUUUUUUUUU",
"UUUUUUUUUUUUUUUUUUUUUUU+588<UUUUUUUUUUUUUUUUUUUUUUUU",
"UUUUUUUUUUUUUUUUUUUUUUUUX  XUUUUUUUUUUUUUUUUUUUUUUUU",
"UUUUUUUUUUUUUUUUUUUUUUUUX  XUUUUUUUUUUUUUUUUUUUUUUUU",
"UUUUUUUUUUUUUUUUUUUUUUUUX  XUUUUUUUUUUUUUUUUUUUUUUUU",
"UUUUUUUUUUUUUUUUUUUUUUUUUUUUUUUUUUUUUUUUUUUUUUUUUUUU"
};
