/* XPM */
static xpm_row_t const lives_xpm[] = {
/* columns rows colors chars-per-pixel */
"134 37 56 1 ",
"  c #040606",
". c #0C0606",
"X c #120606",
"o c #1C0606",
"O c #250606",
"+ c #2B0606",
"@ c #330606",
"# c #3B0505",
"$ c #430505",
"% c #4B0505",
"& c #520505",
"* c #5B0505",
"= c #640505",
"- c #6A0505",
"; c #750404",
": c #7C0404",
"> c #840303",
", c #8B0404",
"< c #940505",
"1 c #9A0505",
"2 c #A40404",
"3 c #AC0303",
"4 c #B30404",
"5 c #BC0303",
"6 c #C40202",
"7 c #CB0202",
"8 c #D40202",
"9 c #DB0202",
"0 c #E40303",
"q c #EC0303",
"w c #F40303",
"e c #FC0303",
"r c #FC0B0B",
"t c #FC1414",
"y c #FC1A1A",
"u c #FC2525",
"i c #FC2D2D",
"p c #FB3131",
"a c #FC3D3D",
"s c #FC4343",
"d c #FC4D4D",
"f c #FC5656",
"g c #FC5C5C",
"h c #FC6262",
"j c #FB6C6C",
"k c #FC7474",
"l c #FC7979",
"z c #FB9797",
"x c #FB9B9B",
"c c #FBA3A3",
"v c #FBA8A8",
"b c #FBB1B1",
"n c #FAECEC",
"m c #FAF3F3",
"M c #FAF9F9",
"N c None",
/* pixels */
"NNNNNNNNNNNNNNNNNNNNNNNNNNNNNNNNNNNNNNNNNNNNNNNNNNNNNNNNNNNNNNNNNNNNNNNNNNNNNNNNNNNNNNNNNNNNNNNNNNNNNNNNNNNNNNNNNNNNNNNNNNNNNNNNNNNNNN",
"NNNNNNNN   .      NNNNNN   .   .  NNNNNNNNNNNNNNNNNNNN       .  NNNNNN   ..    .NNNNNNNNNNNNNNNNNNNN         .NNNNNN .   .  . NNNNNNNN",
"NNNNNNNNXXXXX.XXXXNNNNNNXXXXXXX..XNNNNNNNNNNNNNNNNNNNNXXXXX.XX.XNNNNNNXXXXX..XX.NNNNNNNNNNNNNNNNNNNNXXXoX.X.X.NNNNNNXXXXX.XXXXNNNNNNNN",
"NNNNNN +:111<:;;;%  NN  =1111:;;:;X NNNNNNNNNNNNNNNN +>111,:;:;%  NN .*11<1>;;;;  NNNNNNNNNNNNNNNN +>1<1,:;;:%  NN  *11<1:;;;-  NNNNNN",
"NNNNNN +5eeww0076=  NN  ;wewe08676.  NNNNNNNNNNNNNNN +6ewew0066=  NN  ;weweq7775   NNNNNNNNNNNNNNN @6ewew0076=  NN  ;eeee08665   NNNNN",
"NNNNN+%-8eeeeee86:@#No$%2weeee0885##+NNNNNNNNNNNNNN+%-8eeeeee86:##No%%1eeeee0875##+NNNNNNNNNNNNNN+%-8eeeeee86:##No$$1eeeee0884@@+NNNNN",
"NNN  #0qrpdueeee0882 o4qweeeeeeew875&  NNNNNNNNNN  #qwrpdueeee9883.o3qeeeeeeeew875%  NNNNNNNNNN  $qwepdueeee9883 o3wweeeeeeew875%  NNN",
"NNN@@=wetxmlreeeweq4+%5eeeeeeeeeew85=OONNNNNNNNNN+@-eetzmkreeeeeq5@%5eeeeeeeeeew75=+ONNNNNNNNNN@@-eetxMlreeeeeq5@&5eeeeeeeeeew74=++NNN",
"N X>68ryicnkreeeeeeq67qeeeeeeeeeeeq731;  NNNNNN X:78rtpxnlreeeeeeq68qeeeeeeeeeeeq731;  NNNNNN .>79rticnlreeeeeeq67qeeeeeeeeeeeq731;. N",
"N X<eeivbjsureeeeeeereeeeeeeeeeeeeew97>  NNNNNN .<eeicbjsueeeeeeeeeeeweeeeeeeeeeeq97>  NNNNNN .1eeicbjsueeeeeeeeeeeeeeeeeeeeeeeq87,. N",
"N X<eesnmfeeeeeeeeeeeeeeeeeeeeeeeeew96,  NNNNNN .<eesnmfeeeeeeeeeeeeeeeeeeeeeeeeee96>  NNNNNN .<eeanmgeeeeeeeeeeeeeeeeeeeeeeeeee96,. N",
"N X<weyhhueeeeeeeeeeeeeeeeeeeeeeeeeeq9>  NNNNNN X<eeyhhueeeeeeeeeeeeeeeeeeeeeeeeeeq9>  NNNNNN X<eeyghueeeeeeeeeeeeeeeeeeeeeeeeeeq8>. N",
"N X<eeereeeeeeeeeeeeeeeeeeeeeeeeeeeeeq>  NNNNNN .<eeerreeeeeeeeeeeeeeeeeeeeeeeeeeee0>  NNNNNN .<eeerreeeeeeeeeeeeeeeeeeeeeeeeeeew0>. N",
"N X<eeeeeeeeeeeeeeeeeeeeeeeeeeeeeeeee0,  NNNNNN .<eeeeeeeeeeeeeeeeeeeeeeeeeeeeeeeee0>  NNNNNN X<eeeeeeeeeeeeeeeeeeeeeeeeeeeeeeeeeq>..N",
"N.X<weeeeeeeeeeeeeeeeeeeeeeeeeeeeeeee0,  NNNNNN .<eeeeeeeeeeeeeeeeeeeeeeeeeeeeeeeee0>  NNNNNN X<eeeeeeeeeeeeeeeeeeeeeeeeeeeeeeeew0>. N",
"N X1eeeeeeeeeeeeeeeeeeeeeeeeeeeeeeeeeq,  NNNNNN .<eeeeeeeeeeeeeeeeeeeeeeeeeeeeeeeeeq>  NNNNNN X<eeeeeeeeeeeeeeeeeeeeeeeeeeeeeeeeeq,. N",
"N X,eweeeeeeeeeeeeeeeeeeeeeeeeeeeeeeww1  NNNNNN .<ereeeeeeereeeeeeeeeeeeeeeeeeeeeeww1  NNNNNN X<eeeeeeeeeeeeeeeeeeeeeeeeeeeeeeeeww2. N",
"N X&-,eeeeeeeeeeeeeeeeeeeeeeeeeeeeee2-*  NNNNNN  %-,eeeeeeeeeeeeeeeeeeeeeeeeeeeeew2-*  NNNNNN .%-<eeeeeeeereeeeeeeeeeeeeeeeeeeew2-*. N",
"NNN  @qreeeeeeeeeeeeeeeeeeeeeeeeeeew=  NNNNNNNNNN  #eeeeeeeeeeeeeeeeeeeeeeeeeeeeew=  NNNNNNNNNN  #reeeeeeeeeeeeeeeeeeeeeeeeeeeeq*. NNN",
"NNN  #35qeeeereeeeeeeeeeeeeeeeeeer42&  NNNNNNNNNN  #46qeeeeeeeeeeeeeeeeeeeeeeeew42&  NNNNNNNNNN  #46qeeeeeeeeeeeeeeeeeeeeeeeer32&  NNN",
"NNNNNN O5eeeeeeeeeeeeeeeeeeeeeeeeeo  NNNNNNNNNNNNNNN O5eeeeeeeeeeeeeeeeeeeeeeerq   NNNNNNNNNNNNNNN O6eeeeeeeeeeeeeeeeeeeeeeee0   NNNNN",
"NNNNNN O17qeeeeeeeeeeeeeeeeeeee086X NNNNNNNNNNNNNNNN +17qeeeeeeeeeeeeeeeeeeee076  NNNNNNNNNNNNNNNN +17qeeeeeeeeeeeeeeeeeere075  NNNNNN",
"NNNNNNNo@+3eeeeeeeeeeeeeeeeeeew2$@NNNNNNNNNNNNNNNNNNNo@+4eeeeeeeeeeeeeeeeeeee2#@NNNNNNNNNNNNNNNNNNNo@@3eeeeeeeeeeeeeeeeeeee2#@NNNNNNNN",
"NNNNNNNN  1eeeeeeeeeeeeeeeeeerw,  NNNNNNNNNNNNNNNNNNNN  1weeeeeeereeeeeeeeeee,  NNNNNNNNNNNNNNNNNNNN .1weeeeeeeeeeeeeeeeeew,  NNNNNNNN",
"NNNNNNNNNN#%,qeeeeeeeeeeeeeew-%$.NNNNNNNNNNNNNNNNNNNNNNN#$,qreeeeeeeeeeeeee;%# NNNNNNNNNNNNNNNNNNNNNNN$%,qreeeeeeeeeeeeee-%#NNNNNNNNNN",
"NNNNNNNNNN  *qereeeeeeeeeeeeq@  NNNNNNNNNNNNNNNNNNNNNNNN  *weeeeeeeeeeeeeer@  NNNNNNNNNNNNNNNNNNNNNNNN  *qeeeeeeeeeeeeere@  NNNNNNNNNN",
"NNNNNNNNNN  %,<weeeeeeeeee92<+  NNNNNNNNNNNNNNNNNNNNNNNN  %<1weeeeeeeeee021@  NNNNNNNNNNNNNNNNNNNNNNNN  %,<weeeeeeeeee92<@  NNNNNNNNNN",
"NNNNNNNNNNNN...0eeeeeeeeee5@.NNNNNNNNNNNNNNNNNNNNNNNNNNNNN.Xoqeeeeeeeeee5@.NNNNNNNNNNNNNNNNNNNNNNNNNNNNNX.X0eeeeeeeeee5@ NNNNNNNNNNNNN",
"NNNNNNNNNNNN   80weeeeeew03+ NNNNNNNNNNNNNNNNNNNNNNNNNNNNN  X00wweeeeew04+ NNNNNNNNNNNNNNNNNNNNNNNNNNNNN  X80weeeeeew03O NNNNNNNNNNNNN",
"NNNNNNNNNNNNNNN  >eeeeee,. NNNNNNNNNNNNNNNNNNNNNNNNNNNNNNNNNN .>weeeew,. NNNNNNNNNNNNNNNNNNNNNNNNNNNNNNNNNN .>eeeeee>  NNNNNNNNNNNNNNN",
"NNNNNNNNNNNNNNN  :qweeww>  NNNNNNNNNNNNNNNNNNNNNNNNNNNNNNNNNN  >qweewq>  NNNNNNNNNNNNNNNNNNNNNNNNNNNNNNNNNN .:qqeeww>  NNNNNNNNNNNNNNN",
"NNNNNNNNNNNNNNN  %->rq<-%.NNNNNNNNNNNNNNNNNNNNNNNNNNNNNNNNNNN .%-;wq1-%. NNNNNNNNNNNNNNNNNNNNNNNNNNNNNNNNNN .%-;wq1-% NNNNNNNNNNNNNNNN",
"NNNNNNNNNNNNNNNNN. +e0&. NNNNNNNNNNNNNNNNNNNNNNNNNNNNNNNNNNNNNN..Ow0& .NNNNNNNNNNNNNNNNNNNNNNNNNNNNNNNNNNNNNN  owq&  NNNNNNNNNNNNNNNNN",
"NNNNNNNNNNNNNNNNN  +62$. NNNNNNNNNNNNNNNNNNNNNNNNNNNNNNNNNNNNNN  O42%  NNNNNNNNNNNNNNNNNNNNNNNNNNNNNNNNNNNNNN  O42%  NNNNNNNNNNNNNNNNN",
"NNNNNNNNNNNNNNNNNNNNX.NNNNNNNNNNNNNNNNNNNNNNNNNNNNNNNNNNNNNNNNNNNNXXNNNNNNNNNNNNNNNNNNNNNNNNNNNNNNNNNNNNNNNNNNNNXXNNNNNNNNNNNNNNNNNNNN",
"NNNNNNNNNNNNNNNNNNNN   NNNNNNNNNNNNNNNNNNNNNNNNNNNNNNNNNNNNNNNNNNN   NNNNNNNNNNNNNNNNNNNNNNNNNNNNNNNNNNNNNNNNNNN   NNNNNNNNNNNNNNNNNNN",
"NNNNNNNNNNNNNNNNNNNNNNNNNNNNNNNNNNNNNNNNNNNNNNNNNNNNNNNNNNNNNNNNNNNNNNNNNNNNNNNNNNNNNNNNNNNNNNNNNNNNNNNNNNNNNNNNNNNNNNNNNNNNNNNNNNNNNN"
};
